<?xml version="1.0" encoding="utf-8"?>
<!-- Svg Vector Icons : http://www.onlinewebfonts.com/icon -->
<!DOCTYPE svg PUBLIC "-//W3C//DTD SVG 1.1//EN" "http://www.w3.org/Graphics/SVG/1.1/DTD/svg11.dtd">
<svg version="1.1" xmlns="http://www.w3.org/2000/svg" xmlns:xlink="http://www.w3.org/1999/xlink" x="0px" y="0px" viewBox="0 0 1000 1000" enable-background="new 0 0 1000 1000" xml:space="preserve">
<metadata> Svg Vector Icons : http://www.onlinewebfonts.com/icon </metadata>
<g><path d="M936.2,687.2c16.9-28.9,28.5-61.2,37.7-93.3c21.7-76.1,18.9-172.4,6.8-250.4c-15-96.2-72.6-187.1-149.2-246.1C704.9,0.1,552.6,9.8,402,12.4C194.2,16,30.2,187.5,12.8,389.4c-10.3,119,5.8,240.2,76.8,339.1c76.2,106.2,201.8,165.6,331.4,165.6c44.9,0,89.9,0,134.9,0c20.4,0,40.6-0.1,61-1.4c18.5-1.2,37-4.7,55.2-8.3c14.8-2.9,15.1-6.6,13.6-8.5c0.5,0.3,1,0.6,1.7,0.9c69.7,36.3,139.4,72.6,209.2,108.8c7.2,3.7,14.2,4.2,20.4,2.5c12.1-1.7,22.5-10.4,22-26c0.4-3,0.2-6-0.5-8.9c-3-53.3-6-106.6-9-160c-1.6-27.9-3.1-55.9-4.7-83.8C923.7,695.2,926.9,703.1,936.2,687.2z M894.9,645.1c-8.1,16.9-28.2,36.2-27.1,55.9c1.4,24.9,2.8,49.8,4.2,74.7c2.6,46,5.2,92,7.8,138c-35.7-18.6-71.4-37.2-107.1-55.7c-20.6-10.7-41.2-21.4-61.7-32.1c-13.9-7.2-23.9-3.5-38.5,0.7c-29.5,8.5-60.5,11.4-91.1,11.4c-55.4,0-110.8,0-166.2,0c-113.2,0-218.4-56.1-284.1-147.7c-57.1-79.6-62.8-168.8-62.8-262.8c0-104.7,38.3-198,114.9-269.9c69.5-65.2,160.5-89,253.3-89c67.2,0,138-5.9,204.6,4.5c113.8,17.8,207.6,94.8,257.8,196.6c39.5,80.2,40.7,190.6,27.4,278.3C921.2,581.7,909.5,614.4,894.9,645.1z"/><path d="M384.4,451.6c-6.9-57.3-49.9-97.7-108.9-100.9c-61.9-3.3-106.6,52.7-109.7,109.7c-3.3,61.9,52.7,106.7,109.7,109.7c58.6,3.2,101.8-47,108.8-100.7c0.7-2.7,1-5.7,0.8-9C385.3,457.2,385,454.2,384.4,451.6z M222.1,460.4c-3.7-68.9,103.1-68.6,106.8,0C325.2,529.3,225.8,529.3,222.1,460.4z"/><path d="M615.5,451.6c-6.9-57.3-49.9-97.7-108.9-100.9c-61.9-3.3-106.6,52.7-109.7,109.7c-3.3,61.9,52.7,106.7,109.7,109.7c58.6,3.2,101.8-47,108.8-100.7c0.7-2.7,1-5.7,0.8-9C616.4,457.2,616.1,454.2,615.5,451.6z M453.2,460.4c-3.7-68.9,103.1-68.6,106.8,0C556.3,529.3,456.9,529.3,453.2,460.4z"/><path d="M846.5,451.6c-6.9-57.3-49.9-97.7-108.9-100.9c-61.8-3.3-106.6,52.7-109.7,109.7c-3.3,61.9,52.7,106.7,109.7,109.7c58.6,3.2,101.8-47,108.8-100.7c0.7-2.7,1-5.7,0.8-9C847.5,457.2,847.2,454.2,846.5,451.6z M684.3,460.4c-3.7-68.9,103.1-68.6,106.8,0C787.4,529.3,688,529.3,684.3,460.4z"/></g>
</svg>